<svg xmlns="http://www.w3.org/2000/svg" viewBox="0 4 260.33 44" width="521" height="88" role="img" aria-label="TechInView concept B lockup">
  <g transform="translate(1.778 1.111) scale(1.5556)">
  <path d="M6 9L13 16L6 23" stroke="#0A0B0D" stroke-width="3" stroke-linecap="square" stroke-linejoin="miter" fill="none"/>
  <rect x="18" y="12" width="3" height="8" fill="#0891B2"/>
  <rect x="25" y="7" width="3" height="18" fill="#0891B2"/>
  </g>
  <g transform="translate(58.333 0)">
  <g fill="none" stroke="#0A0B0D" stroke-width="3.4">
    <path d="M5.2 14.5V40M0 21.7H10"/>
    <path d="M14.200000000000001 29.5H31.4A8.6 8.6 0 1 0 28.88 36.08"/>
    <path d="M52.98 23.92A8.6 8.6 0 1 0 52.98 36.08"/>
    <path d="M59.4 12V40M59.4 31C59.4 24.5 62.6 21.7 66.9 21.7C71.2 21.7 74.4 24.5 74.4 31V40"/>
    <path d="M83.3 20V40"/>
    <path d="M92.2 20V40M92.2 31C92.2 24.5 95.4 21.7 99.7 21.7C104 21.7 107.2 24.5 107.2 31V40"/>
    <path d="M136.2 20V40"/>
    <path d="M144.1 29.5H161.29999999999998A8.6 8.6 0 1 0 158.78 36.08"/>
  </g>
  <clipPath id="concept-b-light-clip"><rect x="100" y="20" width="100" height="20"/></clipPath>
  <g clip-path="url(#concept-b-light-clip)" fill="none" stroke="#0A0B0D" stroke-width="3.4" stroke-linejoin="miter" stroke-miterlimit="12">
    <path d="M112.1 16L121.7 40L131.3 16"/>
    <path d="M166.1 16L173.3 40L179.3 20L185.3 40L192.5 16"/>
  </g>
  <circle cx="83.3" cy="13.6" r="2.1" fill="#0A0B0D"/>
  <circle cx="136.2" cy="13.6" r="2.1" fill="#0A0B0D"/>
  </g>
</svg>
